HIERARCHY
ROOT Hips
{
	OFFSET 0.000000 0.000000 0.000000 
	CHANNELS 6 Xposition Yposition Zposition Zrotation Yrotation Xrotation
	JOINT LeftUpLeg
	{
		OFFSET 1.363060 -1.794630 0.839290 
		CHANNELS 3 Zrotation Yrotation Xrotation
		JOINT LeftLeg
		{
			OFFSET 2.448110 -6.726130 0.000000 
			CHANNELS 3 Zrotation Yrotation Xrotation
			JOINT LeftFoot
			{
				OFFSET 2.562200 -7.039590 0.000000 
				CHANNELS 3 Zrotation Yrotation Xrotation
				JOINT LeftToeBase
				{
					OFFSET 0.157640 -0.433110 2.322550 
					CHANNELS 3 Zrotation Yrotation Xrotation
					End Site
					{
						OFFSET 0.000000 0.000000 0.000000 
					}
				}
			}
		}
	}
	JOINT RightUpLeg
	{
		OFFSET -1.305520 -1.794630 0.839290 
		CHANNELS 3 Zrotation Yrotation Xrotation
		JOINT RightLeg
		{
			OFFSET -2.542530 -6.985550 0.000000 
			CHANNELS 3 Zrotation Yrotation Xrotation
			JOINT RightFoot
			{
				OFFSET -2.568260 -7.056230 0.000000 
				CHANNELS 3 Zrotation Yrotation Xrotation
				JOINT RightToeBase
				{
					OFFSET -0.164730 -0.452590 2.363150 
					CHANNELS 3 Zrotation Yrotation Xrotation
					End Site
					{
						OFFSET 0.000000 0.000000 0.000000 
					}
				}
			}
		}
	}
	JOINT Spine
	{
		OFFSET 0.028270 2.035590 -0.193380 
		CHANNELS 3 Zrotation Yrotation Xrotation
		JOINT Spine1
		{
			OFFSET 0.056720 2.048850 -0.042750 
			CHANNELS 3 Zrotation Yrotation Xrotation
			JOINT Neck1
			{
				OFFSET -0.054170 1.746240 0.172020 
				CHANNELS 3 Zrotation Yrotation Xrotation
				JOINT Head
				{
					OFFSET 0.104070 1.761360 -0.123970 
					CHANNELS 3 Zrotation Yrotation Xrotation
					End Site
					{
						OFFSET 0.000000 0.000000 0.000000 
					}
				}
			}
			JOINT LeftArm
			{
				OFFSET 3.362410 1.200890 -0.311210 
				CHANNELS 3 Zrotation Yrotation Xrotation
				JOINT LeftForeArm
				{
					OFFSET 4.983000 -0.000000 -0.000000 
					CHANNELS 3 Zrotation Yrotation Xrotation
					JOINT LeftHand
					{
						OFFSET 3.483560 -0.000000 -0.000000 
						CHANNELS 3 Zrotation Yrotation Xrotation
						JOINT LeftHandIndex1
						{
							OFFSET 0.715260 -0.000000 -0.000000 
							CHANNELS 3 Zrotation Yrotation Xrotation
							End Site
							{
								OFFSET 0.000000 0.000000 0.000000 
							}
						}
					}
				}
			}
			JOINT RightArm
			{
				OFFSET -3.136600 1.374050 -0.404650 
				CHANNELS 3 Zrotation Yrotation Xrotation
				JOINT RightForeArm
				{
					OFFSET -5.241900 -0.000000 -0.000000 
					CHANNELS 3 Zrotation Yrotation Xrotation
					JOINT RightHand
					{
						OFFSET -3.444170 -0.000000 -0.000000 
						CHANNELS 3 Zrotation Yrotation Xrotation
						JOINT RightHandIndex1
						{
							OFFSET -0.622530 -0.000000 -0.000000 
							CHANNELS 3 Zrotation Yrotation Xrotation
							End Site
							{
								OFFSET 0.000000 0.000000 0.000000 
							}
						}
					}
				}
			}
		}
	}
}
MOTION
Frames: 13
Frame Time: 0.041667
-3.186154 14.839896 -19.815968 2.349363 -48.873550 9.809083 -7.800879 12.896335 -69.419157 24.126232 18.324205 101.958337 2.958800 -4.185877 6.724809 1.429000 -7.558700 -21.381600 2.068094 -4.476420 -60.843291 -23.211249 -18.942751 100.785667 -2.556317 21.477760 21.027212 -0.014500 0.777000 -2.135300 1.721252 -3.683403 2.608994 3.019313 -2.085227 -5.217374 18.103621 -15.167005 -4.761916 6.138900 -7.498000 0.119900 -15.223157 -55.086215 23.178077 100.311531 -57.720069 -69.849509 1.865519 -0.971716 4.004667 -7.125000 0.000000 0.000000 22.674026 17.414167 5.766321 -116.074543 55.220221 -89.029582 0.050157 0.876214 -3.328972 7.125000 0.000000 0.000000 
-3.176244 15.006734 -19.823917 1.870135 -47.651754 9.619000 -6.886085 13.714692 -65.724864 24.207725 18.387352 102.145635 2.692029 -3.409433 6.902159 1.594100 -7.963900 -22.604400 1.327772 -2.714312 -59.962289 -22.851486 -19.133954 99.636051 -2.514843 22.200516 20.366934 -0.156100 2.546100 -7.017400 1.736417 -4.203364 2.657046 3.388709 -2.392861 -5.571243 18.159728 -15.435512 -4.023294 6.174900 -7.592500 0.295100 -23.379232 -54.903662 37.896090 97.902715 -56.363409 -66.934082 1.836152 -1.028812 4.703972 -7.125000 0.000000 0.000000 27.087180 14.912597 9.214929 -116.969980 54.683884 -89.667298 0.064350 0.770143 -2.421798 7.125000 0.000000 0.000000 
-3.164374 15.170196 -19.828382 1.731566 -46.693823 9.316819 -6.439823 14.476795 -61.982345 24.223180 18.515210 102.009703 2.084592 -1.661686 6.714495 2.356000 -9.571200 -27.599100 0.174201 -0.375824 -59.321421 -22.489648 -19.350114 98.459081 -2.508771 22.388235 19.582302 -0.295700 3.496800 -9.665200 1.739770 -4.754461 2.642774 3.957704 -2.692743 -5.900347 18.067450 -15.585875 -3.145150 6.231900 -7.602100 0.531900 -30.291746 -54.500213 51.782796 95.100717 -53.876242 -63.784557 1.857489 -1.219089 5.732773 -7.125000 0.000000 0.000000 31.514019 12.232011 12.748951 -117.562419 54.289050 -89.983307 0.102735 0.656347 -1.621227 7.125000 0.000000 0.000000 
-3.147820 15.313730 -19.834699 1.863733 -45.906436 9.061385 -5.975527 14.982468 -58.059083 24.056986 18.688757 101.446592 1.960120 -1.327546 7.310243 2.087300 -9.045700 -25.938300 -1.197483 2.294433 -59.120725 -22.133898 -19.590818 97.254898 -2.572104 21.295780 18.376568 -0.509400 4.575100 -12.700400 1.742544 -5.164680 2.621113 4.600018 -2.889627 -5.737748 17.704209 -15.728907 -1.873241 6.220200 -7.562100 0.976400 -34.998950 -55.659508 64.060197 91.983101 -49.863548 -60.310764 1.959799 -1.603404 7.182526 -7.125000 0.000000 0.000000 35.871187 9.251205 15.892253 -117.851634 54.035580 -90.048879 0.164858 0.533036 -0.772961 7.125000 0.000000 0.000000 
-3.151305 15.456174 -19.843084 2.121358 -45.265955 8.690387 -5.617203 15.587678 -53.869779 23.723748 18.899178 100.404522 1.927539 -1.251552 8.321010 1.706200 -8.225200 -23.400100 -2.500446 5.184974 -58.886348 -21.788086 -19.883721 96.002816 -2.641040 18.813996 16.378372 -0.906700 6.068100 -16.982000 1.826199 -5.285180 2.645519 5.717892 -2.855634 -5.236960 16.963194 -15.809499 -0.491153 6.247600 -7.471700 1.397700 -38.602285 -58.925712 75.602946 88.531986 -44.399586 -56.358912 2.256152 -2.474327 9.040869 -7.125000 0.000000 0.000000 39.534033 5.920813 18.406506 -117.740541 54.042863 -89.823077 0.228758 0.427656 -0.237575 7.125000 0.000000 0.000000 
-3.156750 15.582936 -19.839708 2.346209 -44.493156 8.533735 -5.465657 16.322911 -49.381033 23.163919 19.115050 98.674256 1.875730 -1.081343 9.760153 1.421100 -7.538700 -21.321600 -3.741406 8.168839 -58.799179 -21.389688 -20.322640 94.509535 -2.572631 15.098833 13.937442 -1.225700 7.021800 -19.780000 1.029327 -4.821754 3.362675 6.923177 -2.104687 -5.236010 14.885649 -15.948498 1.277702 6.220800 -7.407900 1.547900 -49.982899 -70.476011 89.419960 78.382642 -41.654270 -50.377590 3.340278 -6.762638 13.128612 -7.125000 0.000000 0.000000 43.241548 3.240566 21.145670 -116.906992 54.792537 -89.092842 0.360263 0.248299 0.325177 7.125000 0.000000 0.000000 
-3.158166 15.541226 -19.842213 2.376303 -43.688254 8.199964 -5.093667 17.130790 -45.738422 22.731754 19.105770 97.377318 1.912990 -1.139982 10.636512 1.889900 -8.632900 -24.653400 -5.291518 11.272010 -60.026552 -21.180374 -20.728867 93.569435 -2.232931 10.697419 11.850396 -1.209400 6.976600 -19.646000 1.888625 -3.606488 3.001028 6.512836 -2.537715 7.447861 16.608644 -15.254520 -2.178937 6.170900 -7.337100 1.527100 84.043284 -67.212692 -60.275472 75.596109 -62.935422 -46.668288 1.806289 -3.558951 14.930461 -7.125000 0.000000 0.000000 47.054946 4.385924 21.419175 -114.824297 53.834006 -87.316671 0.453369 0.272824 1.309185 7.125000 0.000000 0.000000 
-3.159364 15.618002 -19.825878 2.173620 -43.780944 8.410376 -5.374073 18.333846 -41.549648 21.788820 19.427768 94.442670 1.830714 -0.936857 10.574000 2.094000 -9.059300 -25.980900 -6.439878 14.429030 -60.486399 -20.509192 -21.146210 91.225836 -1.562484 5.601180 9.662423 -1.316500 7.267400 -20.509900 2.015881 -4.169131 2.351713 6.556875 -2.785085 6.831770 16.886950 -14.831618 -1.788650 6.138800 -7.158700 1.655500 82.828768 -72.485611 -53.871118 72.671044 -60.736479 -43.204784 1.480170 -2.465958 16.805593 -7.125000 0.000000 0.000000 50.765731 0.609714 23.186364 -112.175644 54.665485 -84.736926 0.557003 0.210585 1.830216 7.125000 0.000000 0.000000 
-3.154790 15.698046 -19.804642 1.891240 -44.042792 8.719678 -5.824727 19.682986 -37.408355 20.602979 19.723634 90.789805 1.637542 -0.409946 10.066960 2.138500 -9.148900 -26.262100 -7.592176 17.823288 -60.850658 -19.508451 -21.600679 88.088541 -0.957465 2.170553 7.434086 -1.279100 7.167400 -20.212200 2.121208 -4.777946 1.895332 6.850206 -3.070373 5.956408 16.692484 -14.241219 -0.905208 6.047000 -6.844800 1.881000 80.916293 -77.468257 -48.538743 68.961945 -59.502516 -39.699046 1.238629 -1.971366 18.998444 -7.125000 0.000000 0.000000 53.636362 -2.551181 24.791935 -108.217983 55.533312 -81.074989 0.647941 0.146244 1.094649 7.125000 0.000000 0.000000 
-3.149236 15.770357 -19.770555 1.342987 -44.259230 9.323287 -6.207892 21.035412 -33.640001 19.210238 19.911547 86.527806 1.252671 0.674587 9.285370 2.017700 -8.902900 -25.492000 -8.696366 21.008376 -61.032843 -18.081673 -22.004286 83.871659 -0.380375 -0.660521 5.327615 -1.058800 6.542400 -18.366700 2.276439 -5.442390 1.524687 7.323114 -3.412083 5.440341 16.156617 -13.507502 -0.092779 5.896800 -6.459500 2.014200 80.240392 -80.944114 -45.180290 65.687251 -58.517742 -36.791601 1.073422 -1.779268 20.718714 -7.125000 0.000000 0.000000 55.697857 -5.114711 26.527730 -103.053712 56.256780 -76.355898 0.736544 0.045219 -1.485619 7.125000 0.000000 0.000000 
-3.142375 15.819907 -19.722203 0.651823 -44.443963 10.124230 -6.594668 22.383199 -30.123549 17.655361 19.976152 81.827649 0.772540 1.974834 7.962615 1.855500 -8.558300 -24.423200 -9.745839 23.571866 -61.064133 -16.262408 -22.205211 78.712238 -0.046915 -2.228755 3.799193 -0.739100 5.492200 -15.318000 2.478505 -6.185185 1.192676 7.824119 -3.804048 5.133131 15.378626 -12.624547 0.792408 5.618300 -5.999200 2.132000 80.366373 -84.241661 -42.963082 62.738802 -57.420011 -34.185780 0.972941 -1.634898 22.052651 -7.125000 0.000000 0.000000 57.167050 -7.353593 27.756721 -97.322082 56.729051 -71.063376 0.790910 0.073498 -3.662774 7.125000 0.000000 0.000000 
-3.125713 15.846806 -19.665465 -0.137564 -44.757588 11.245287 -7.094063 23.903374 -27.045730 15.954999 19.881609 76.746849 0.226824 3.350202 5.614095 1.847500 -8.540900 -24.369400 -11.004124 25.991355 -61.147109 -14.090857 -22.170163 72.661261 0.058647 -2.871286 3.015672 -0.616200 5.023700 -13.976100 2.774992 -6.977562 0.815023 8.407950 -4.237814 4.859928 14.279677 -11.625132 1.966956 5.150400 -5.467100 2.359000 79.017925 -87.528963 -39.973856 59.798658 -56.580563 -31.645923 0.893279 -1.385226 23.271829 -7.125000 0.000000 0.000000 57.920583 -9.448109 28.732311 -91.483027 56.915525 -65.676088 0.838113 0.100733 -5.550172 7.125000 0.000000 0.000000 
-3.095765 15.852469 -19.606222 -0.795427 -44.735013 12.668489 -7.808792 24.954389 -24.726811 14.130274 19.590141 71.465066 0.472784 2.763112 2.234483 2.689300 -10.174300 -29.542900 -12.785461 28.118192 -61.307584 -11.672979 -21.797093 65.897239 -0.015832 -2.869610 2.618911 -0.807100 5.733400 -16.012800 3.178369 -8.027150 0.403933 9.111709 -4.818063 4.796220 13.191299 -10.583126 3.026364 4.705500 -4.917600 2.595000 -103.514301 -89.753246 143.055968 56.737042 -55.924922 -29.208129 0.735209 -1.180945 23.604345 -7.125000 0.000000 0.000000 57.810231 -11.180780 29.741328 -85.699449 56.839353 -60.363173 0.902788 0.154177 -7.615986 7.125000 0.000000 0.000000 
